REM DIRINDEX 1\2,1\3,1\4,1\5
REM DIRNAME "folder01","folder02","folder03","folder04","folder05"
TITLE ""
FILE "P1Q_t_0559-0568.mp3" MP3
  TRACK 01 AUDIO
    TITLE "3:cjc173_2610"
    INDEX 01 00:00:00
  TRACK 02 AUDIO
    TITLE "0:"
    INDEX 01 00:01:12
  TRACK 03 AUDIO
    TITLE "4:cjc173_2611"
    INDEX 01 00:01:33
  TRACK 04 AUDIO
    TITLE "0:"
    INDEX 01 00:05:19
  TRACK 05 AUDIO
    TITLE "5:cjc173_2612"
    INDEX 01 00:05:39
  TRACK 06 AUDIO
    TITLE "0:"
    INDEX 01 00:10:03
  TRACK 07 AUDIO
    TITLE "3:cjc173_2613"
    INDEX 01 00:10:50
  TRACK 08 AUDIO
    TITLE "0:"
    INDEX 01 00:11:49
  TRACK 09 AUDIO
    TITLE "4:cjc173_2614"
    INDEX 01 00:11:73
  TRACK 10 AUDIO
    TITLE "0:"
    INDEX 01 00:13:05
  TRACK 11 AUDIO
    TITLE "5:cjc173_2615"
    INDEX 01 00:13:27
  TRACK 12 AUDIO
    TITLE "0:"
    INDEX 01 00:17:34
  TRACK 13 AUDIO
    TITLE "3:cjc173_2616"
    INDEX 01 00:18:04
  TRACK 14 AUDIO
    TITLE "0:"
    INDEX 01 00:19:23
  TRACK 15 AUDIO
    TITLE "4:cjc173_2617"
    INDEX 01 00:19:45
  TRACK 16 AUDIO
    TITLE "0:"
    INDEX 01 00:21:36
  TRACK 17 AUDIO
    TITLE "5:cjc173_2618"
    INDEX 01 00:21:58
  TRACK 18 AUDIO
    TITLE "0:"
    INDEX 01 00:26:25
  TRACK 19 AUDIO
    TITLE "3:cjc173_2619"
    INDEX 01 00:26:70
  TRACK 20 AUDIO
    TITLE "0:"
    INDEX 01 00:28:13
  TRACK 21 AUDIO
    TITLE "4:cjc173_2620"
    INDEX 01 00:28:32
  TRACK 22 AUDIO
    TITLE "0:"
    INDEX 01 00:29:35
  TRACK 23 AUDIO
    TITLE "5:cjc173_2621"
    INDEX 01 00:29:55
  TRACK 24 AUDIO
    TITLE "0:"
    INDEX 01 00:34:27
  TRACK 25 AUDIO
    TITLE "3:cjc173_2622"
    INDEX 01 00:34:74
  TRACK 26 AUDIO
    TITLE "0:"
    INDEX 01 00:36:18
  TRACK 27 AUDIO
    TITLE "4:cjc173_2623"
    INDEX 01 00:36:39
  TRACK 28 AUDIO
    TITLE "0:"
    INDEX 01 00:38:42
  TRACK 29 AUDIO
    TITLE "5:cjc173_2624"
    INDEX 01 00:38:64
  TRACK 30 AUDIO
    TITLE "0:"
    INDEX 01 00:44:25
  TRACK 31 AUDIO
    TITLE "3:cjc173_2625"
    INDEX 01 00:44:70
  TRACK 32 AUDIO
    TITLE "0:"
    INDEX 01 00:46:06
  TRACK 33 AUDIO
    TITLE "4:cjc173_2626"
    INDEX 01 00:46:26
  TRACK 34 AUDIO
    TITLE "0:"
    INDEX 01 00:49:07
  TRACK 35 AUDIO
    TITLE "5:cjc173_2627"
    INDEX 01 00:49:26
  TRACK 36 AUDIO
    TITLE "0:"
    INDEX 01 00:53:65
  TRACK 37 AUDIO
    TITLE "3:cjc173_2628"
    INDEX 01 00:54:37
  TRACK 38 AUDIO
    TITLE "0:"
    INDEX 01 00:55:62
  TRACK 39 AUDIO
    TITLE "4:cjc173_2629"
    INDEX 01 00:56:09
  TRACK 40 AUDIO
    TITLE "0:"
    INDEX 01 00:58:53
  TRACK 41 AUDIO
    TITLE "5:cjc173_2630"
    INDEX 01 00:58:74
  TRACK 42 AUDIO
    TITLE "0:"
    INDEX 01 01:02:64
  TRACK 43 AUDIO
    TITLE "3:cjc173_2631"
    INDEX 01 01:03:34
  TRACK 44 AUDIO
    TITLE "0:"
    INDEX 01 01:04:59
  TRACK 45 AUDIO
    TITLE "4:cjc173_2632"
    INDEX 01 01:05:04
  TRACK 46 AUDIO
    TITLE "0:"
    INDEX 01 01:07:71
  TRACK 47 AUDIO
    TITLE "5:cjc173_2633"
    INDEX 01 01:08:16
  TRACK 48 AUDIO
    TITLE "0:"
    INDEX 01 01:12:02
  TRACK 49 AUDIO
    TITLE "3:cjc173_2634"
    INDEX 01 01:12:49
  TRACK 50 AUDIO
    TITLE "0:"
    INDEX 01 01:14:01
  TRACK 51 AUDIO
    TITLE "4:cjc173_2635"
    INDEX 01 01:14:24
  TRACK 52 AUDIO
    TITLE "0:"
    INDEX 01 01:15:39
  TRACK 53 AUDIO
    TITLE "5:cjc173_2636"
    INDEX 01 01:15:59
  TRACK 54 AUDIO
    TITLE "0:"
    INDEX 01 01:20:27
  TRACK 55 AUDIO
    TITLE "3:cjc173_2637"
    INDEX 01 01:20:74
  TRACK 56 AUDIO
    TITLE "0:"
    INDEX 01 01:22:16
  TRACK 57 AUDIO
    TITLE "4:cjc173_2638"
    INDEX 01 01:22:36
  TRACK 58 AUDIO
    TITLE "0:"
    INDEX 01 01:24:56
  TRACK 59 AUDIO
    TITLE "5:cjc173_2639"
    INDEX 01 01:25:01
  TRACK 60 AUDIO
    TITLE "0:"
    INDEX 01 01:28:68
